<svg width="630" height="630" viewBox="0 0 630 630" fill="none" xmlns="http://www.w3.org/2000/svg">
<path d="M0 135C0 99.196 14.223 64.858 39.541 39.541C64.858 14.223 99.196 0 135 0H495C530.804 0 565.142 14.223 590.459 39.541C615.777 64.858 630 99.196 630 135V495C630 530.804 615.777 565.142 590.459 590.459C565.142 615.777 530.804 630 495 630H135C99.196 630 64.858 615.777 39.541 590.459C14.223 565.142 0 530.804 0 495V135ZM285.93 184.68C290.155 180.455 292.528 174.725 292.528 168.75C292.528 162.775 290.155 157.045 285.93 152.82C281.705 148.595 275.975 146.222 270 146.222C264.025 146.222 258.295 148.595 254.07 152.82L190.53 216.36L172.665 200.07C168.226 196.276 162.486 194.356 156.658 194.716C150.83 195.077 145.37 197.689 141.432 202C137.494 206.312 135.387 211.986 135.555 217.823C135.724 223.66 138.155 229.203 142.335 233.28L176.085 264.105C180.361 267.998 185.973 270.096 191.754 269.962C197.536 269.828 203.044 267.472 207.135 263.385L285.93 184.68ZM285.93 377.82C283.84 375.725 281.357 374.062 278.624 372.928C275.89 371.794 272.96 371.21 270 371.21C267.04 371.21 264.11 371.794 261.376 372.928C258.643 374.062 256.16 375.725 254.07 377.82L190.53 441.36L172.665 425.07C168.226 421.276 162.486 419.356 156.658 419.716C150.83 420.077 145.37 422.689 141.432 427C137.494 431.312 135.387 436.986 135.555 442.823C135.724 448.66 138.155 454.203 142.335 458.28L176.085 489.105C180.356 493.004 185.964 495.109 191.745 494.984C197.527 494.858 203.038 492.511 207.135 488.43L285.885 409.68C290.103 405.461 292.473 399.739 292.473 393.772C292.473 387.806 290.103 382.084 285.885 377.865M360 405C354.033 405 348.31 407.371 344.09 411.59C339.871 415.81 337.5 421.533 337.5 427.5C337.5 433.467 339.871 439.19 344.09 443.41C348.31 447.629 354.033 450 360 450H472.5C478.467 450 484.19 447.629 488.41 443.41C492.629 439.19 495 433.467 495 427.5C495 421.533 492.629 415.81 488.41 411.59C484.19 407.371 478.467 405 472.5 405H360ZM337.5 202.5C337.5 208.467 339.871 214.19 344.09 218.41C348.31 222.629 354.033 225 360 225H472.5C478.467 225 484.19 222.629 488.41 218.41C492.629 214.19 495 208.467 495 202.5C495 196.533 492.629 190.81 488.41 186.59C484.19 182.371 478.467 180 472.5 180H360C354.033 180 348.31 182.371 344.09 186.59C339.871 190.81 337.5 196.533 337.5 202.5Z" fill="#1E1E1E"/>
</svg>
